<svg xmlns="http://www.w3.org/2000/svg" viewBox="0 0 900 380" role="img" aria-labelledby="title desc">
  <title id="title">Anonymised implementation prototype preview</title>
  <desc id="desc">A web application prototype with controls, prediction card and interface states.</desc>
  <rect width="900" height="380" rx="18" fill="#f7fbfc"/>
  <rect x="38" y="42" width="824" height="296" rx="18" fill="#fff" stroke="#d8e3ea"/>
  <rect x="38" y="42" width="92" height="296" rx="18" fill="#08233f"/>
  <circle cx="84" cy="92" r="12" fill="#21b8d0"/>
  <circle cx="84" cy="138" r="12" fill="#f6a15e"/>
  <circle cx="84" cy="184" r="12" fill="#ffffff"/>
  <rect x="166" y="76" width="308" height="42" rx="10" fill="#f9fcfd" stroke="#d8e3ea"/>
  <rect x="190" y="92" width="164" height="10" rx="5" fill="#08233f"/>
  <rect x="166" y="148" width="308" height="154" rx="12" fill="#f9fcfd" stroke="#d8e3ea"/>
  <rect x="194" y="248" width="40" height="30" rx="5" fill="#0e9bb0"/>
  <rect x="254" y="216" width="40" height="62" rx="5" fill="#f6a15e"/>
  <rect x="314" y="238" width="40" height="40" rx="5" fill="#21b8d0"/>
  <rect x="374" y="188" width="40" height="90" rx="5" fill="#08233f"/>
  <line x1="190" y1="278" x2="430" y2="278" stroke="#aebdca" stroke-width="2"/>
  <rect x="512" y="76" width="278" height="94" rx="12" fill="#e7f7fa" stroke="#9ed8e1"/>
  <text x="542" y="132" fill="#08233f" font-family="Segoe UI, Arial, sans-serif" font-size="22" font-weight="800">Prediction</text>
  <rect x="542" y="214" width="184" height="14" rx="7" fill="#08233f"/>
  <rect x="542" y="250" width="238" height="10" rx="5" fill="#d8e3ea"/>
  <rect x="542" y="280" width="170" height="10" rx="5" fill="#d8e3ea"/>
</svg>
