<svg xmlns="http://www.w3.org/2000/svg" viewBox="0 0 900 420">
  <rect width="900" height="420" rx="28" fill="#fff"/>
  <rect width="122" height="420" rx="28" fill="#5f7488"/>
  <rect x="162" y="62" width="190" height="270" rx="16" fill="#f8fcfd" stroke="#d8e3ea"/>
  <rect x="192" y="98" width="82" height="10" rx="5" fill="#08233f"/>
  <rect x="192" y="132" width="112" height="22" rx="11" fill="#0e9bb0"/>
  <rect x="192" y="186" width="118" height="8" rx="4" fill="#d8e3ea"/>
  <rect x="192" y="212" width="132" height="8" rx="4" fill="#d8e3ea"/>
  <rect x="192" y="270" width="92" height="28" rx="8" fill="#08233f"/>
  <rect x="386" y="42" width="218" height="310" rx="18" fill="#fff" stroke="#9ed8e1"/>
  <rect x="424" y="86" width="98" height="12" rx="6" fill="#08233f"/>
  <rect x="424" y="126" width="132" height="28" rx="14" fill="#f6a15e"/>
  <rect x="424" y="190" width="134" height="8" rx="4" fill="#d8e3ea"/>
  <rect x="424" y="218" width="112" height="8" rx="4" fill="#d8e3ea"/>
  <rect x="424" y="286" width="116" height="32" rx="8" fill="#0e9bb0"/>
  <rect x="638" y="82" width="164" height="230" rx="16" fill="#f8fcfd" stroke="#d8e3ea"/>
  <rect x="668" y="118" width="78" height="10" rx="5" fill="#08233f"/>
  <rect x="668" y="154" width="96" height="18" rx="9" fill="#21b8d0"/>
  <rect x="668" y="208" width="104" height="8" rx="4" fill="#d8e3ea"/>
  <rect x="668" y="238" width="82" height="8" rx="4" fill="#d8e3ea"/>
</svg>
