<svg xmlns="http://www.w3.org/2000/svg" viewBox="0 0 960 540" role="img">
  <rect width="960" height="540" fill="#f7fbfc"/>
  <rect x="48" y="42" width="864" height="456" rx="16" fill="#fff" stroke="#d8e3ea" stroke-width="2"/>
  <text x="82" y="90" fill="#08233f" font-family="Segoe UI, Arial, sans-serif" font-size="22" font-weight="900">Class responsibility model</text>
  <g font-family="Segoe UI, Arial, sans-serif" font-size="13" font-weight="900">
    <rect x="92" y="146" width="166" height="124" rx="9" fill="#fff" stroke="#c9d8e2"/><text x="122" y="176" fill="#08233f">Notification</text><line x1="92" y1="188" x2="258" y2="188" stroke="#d8e3ea"/><text x="118" y="214" fill="#526173">time</text><text x="118" y="238" fill="#526173">source</text>
    <rect x="304" y="146" width="166" height="124" rx="9" fill="#fff" stroke="#c9d8e2"/><text x="346" y="176" fill="#08233f">Context</text><line x1="304" y1="188" x2="470" y2="188" stroke="#d8e3ea"/><text x="330" y="214" fill="#526173">location</text><text x="330" y="238" fill="#526173">focus state</text>
    <rect x="516" y="146" width="166" height="124" rx="9" fill="#fff" stroke="#c9d8e2"/><text x="546" y="176" fill="#08233f">FeatureSet</text><line x1="516" y1="188" x2="682" y2="188" stroke="#d8e3ea"/><text x="542" y="214" fill="#526173">encode()</text><text x="542" y="238" fill="#526173">normalise()</text>
    <rect x="304" y="338" width="166" height="124" rx="9" fill="#fff" stroke="#c9d8e2"/><text x="346" y="368" fill="#08233f">Predictor</text><line x1="304" y1="380" x2="470" y2="380" stroke="#d8e3ea"/><text x="330" y="406" fill="#526173">train()</text><text x="330" y="430" fill="#526173">score()</text>
    <rect x="516" y="338" width="166" height="124" rx="9" fill="#fff" stroke="#c9d8e2"/><text x="548" y="368" fill="#08233f">Scheduler</text><line x1="516" y1="380" x2="682" y2="380" stroke="#d8e3ea"/><text x="542" y="406" fill="#526173">decide()</text><text x="542" y="430" fill="#526173">batch()</text>
    <rect x="728" y="242" width="146" height="124" rx="9" fill="#eef5f7" stroke="#c9d8e2"/><text x="760" y="272" fill="#08233f">Feedback</text><line x1="728" y1="284" x2="874" y2="284" stroke="#d8e3ea"/><text x="752" y="310" fill="#526173">action</text><text x="752" y="334" fill="#526173">latency</text>
  </g>
  <g stroke="#0e9bb0" stroke-width="5" fill="none" stroke-linecap="round"><path d="M258 208h46"/><path d="M470 208h46"/><path d="M598 270v68"/><path d="M470 400h46"/><path d="M682 400c88 0 88-84 46-96"/><path d="M388 270v68"/><path d="M728 338c-150 98-430 98-560-48" stroke="#f6a15e"/></g>
</svg>
