<svg xmlns="http://www.w3.org/2000/svg" viewBox="0 0 960 540" role="img">
  <rect width="960" height="540" fill="#f7fbfc"/>
  <rect x="48" y="44" width="864" height="452" rx="18" fill="#fff" stroke="#d8e3ea"/>
  <text x="82" y="92" fill="#08233f" font-family="Segoe UI, Arial, sans-serif" font-size="22" font-weight="900">Simplified class model</text>
  <g fill="#fff" stroke="#d8e3ea"><rect x="92" y="148" width="168" height="126" rx="10"/><rect x="304" y="148" width="168" height="126" rx="10"/><rect x="516" y="148" width="168" height="126" rx="10"/><rect x="304" y="330" width="168" height="126" rx="10"/><rect x="516" y="330" width="168" height="126" rx="10"/><rect x="728" y="238" width="150" height="126" rx="10"/></g>
  <g font-family="Segoe UI, Arial, sans-serif"><g font-size="14" font-weight="900" fill="#08233f"><text x="124" y="178">Notification</text><text x="342" y="178">Context</text><text x="550" y="178">FeatureVector</text><text x="344" y="360">Predictor</text><text x="548" y="360">Scheduler</text><text x="760" y="268">Feedback</text></g><g font-size="12" fill="#526173"><text x="116" y="208">time</text><text x="116" y="230">source</text><text x="116" y="252">priority</text><text x="328" y="208">location</text><text x="328" y="230">screen state</text><text x="328" y="252">history</text><text x="540" y="208">temporal</text><text x="540" y="230">behavioural</text><text x="540" y="252">content</text><text x="328" y="390">train()</text><text x="328" y="412">predict()</text><text x="540" y="390">decide()</text><text x="540" y="412">batch()</text><text x="752" y="298">opened</text><text x="752" y="320">ignored</text><text x="752" y="342">latency</text></g></g>
  <g stroke="#0e9bb0" stroke-width="5" stroke-linecap="round"><path d="M260 210h44"/><path d="M472 210h44"/><path d="M600 274v56"/><path d="M472 392h44"/><path d="M684 392c84 0 90-78 44-88"/><path d="M388 274v56"/></g>
</svg>
